<svg width="5" height="23" viewBox="0 0 5 23" fill="none" xmlns="http://www.w3.org/2000/svg">
<path d="M0 0H2.49999V1.91667H0V0ZM2.49999 0H5V1.91667H2.49999V0ZM2.49999 1.91667H5V3.83333H2.49999V1.91667ZM2.49999 3.83333H5V5.75H2.49999V3.83333ZM0 3.83333H2.49999V5.75H0V3.83333ZM0 1.91667H2.49999V3.83333H0V1.91667ZM0 5.75H2.49999V7.66667H0V5.75ZM0 7.66667H2.49999V9.58333H0V7.66667ZM0 9.58333H2.49999V11.5H0V9.58333ZM0 11.5H2.49999V13.4167H0V11.5ZM2.49999 11.5H5V13.4167H2.49999V11.5ZM2.49999 9.58333H5V11.5H2.49999V9.58333ZM2.49999 7.66667H5V9.58333H2.49999V7.66667ZM2.49999 5.75H5V7.66667H2.49999V5.75ZM2.49999 13.4167H5V15.3333H2.49999V13.4167ZM2.49999 15.3333H5V17.25H2.49999V15.3333ZM2.49999 17.25H5V19.1667H2.49999V17.25ZM2.49999 19.1667H5V21.0833H2.49999V19.1667ZM0 19.1667H2.49999V21.0833H0V19.1667ZM2.49999 21.0833H5V23H2.49999V21.0833ZM0 21.0833H2.49999V23H0V21.0833ZM0 17.25H2.49999V19.1667H0V17.25ZM0 15.3333H2.49999V17.25H0V15.3333ZM0 13.4167H2.49999V15.3333H0V13.4167Z" fill="#620080"/>
</svg>
